# xmcd
#
# Track frame offsets: 
#        150
#        24852
#        44465
#        68555
#        90500
#        116207
#        139382
#        162280
#        183495
#        213115
#
# Disc length: 3198 seconds
#
# Revision: 2
# Processed by: cddbd v1.5.2PL0 Copyright (c) Steve Scherf et al.
# Submitted via: ExactAudioCopy v1.0b3
#
DISCID=840c7c0a
DTITLE=Various Artist - Tinh Van Chua Yen
DYEAR=1993
DGENRE=VietPop
TTITLE0=Duy Quang - Tinh van chua yen
TTITLE1=Huong Lan - Giot le sau
TTITLE2=Julie - Thu den bao gio
TTITLE3=Elvis Phuong - Mua thu yeu duong
TTITLE4=Huong Lan - Biet den bao gio
TTITLE5=Thanh Mai - Mot doi tan vo
TTITLE6=Hung Cuong - Tau ve tuong lai
TTITLE7=Julie - Nguoi den roi di
TTITLE8=Duy Quang - Bien sau
TTITLE9=Huong Lan - Ngay tam biet
EXTD=
EXTT0=
EXTT1=
EXTT2=
EXTT3=
EXTT4=
EXTT5=
EXTT6=
EXTT7=
EXTT8=
EXTT9=
PLAYORDER=
